G04 EAGLE Gerber RS-274X export*
G75*
%MOMM*%
%FSLAX34Y34*%
%LPD*%
%INSilkscreen Top*%
%IPPOS*%
%AMOC8*
5,1,8,0,0,1.08239X$1,22.5*%
G01*
%ADD10C,0.152400*%
%ADD11C,0.127000*%


D10*
X66040Y182880D02*
X66040Y195580D01*
X72390Y201930D01*
X85090Y201930D01*
X91440Y195580D01*
X85090Y176530D02*
X72390Y176530D01*
X66040Y182880D01*
X85090Y176530D02*
X91440Y182880D01*
X91440Y195580D01*
X72390Y201930D02*
X66040Y208280D01*
X66040Y220980D01*
X72390Y227330D01*
X85090Y227330D01*
X91440Y220980D01*
X91440Y208280D01*
X85090Y201930D01*
D11*
X59817Y181483D02*
X59817Y178943D01*
X59815Y178843D01*
X59809Y178744D01*
X59799Y178644D01*
X59786Y178546D01*
X59768Y178447D01*
X59747Y178350D01*
X59722Y178254D01*
X59693Y178158D01*
X59660Y178064D01*
X59624Y177971D01*
X59584Y177880D01*
X59540Y177790D01*
X59493Y177702D01*
X59443Y177616D01*
X59389Y177532D01*
X59332Y177450D01*
X59272Y177371D01*
X59208Y177293D01*
X59142Y177219D01*
X59073Y177147D01*
X59001Y177078D01*
X58927Y177012D01*
X58849Y176948D01*
X58770Y176888D01*
X58688Y176831D01*
X58604Y176777D01*
X58518Y176727D01*
X58430Y176680D01*
X58340Y176636D01*
X58249Y176596D01*
X58156Y176560D01*
X58062Y176527D01*
X57966Y176498D01*
X57870Y176473D01*
X57773Y176452D01*
X57674Y176434D01*
X57576Y176421D01*
X57476Y176411D01*
X57377Y176405D01*
X57277Y176403D01*
X50927Y176403D01*
X50827Y176405D01*
X50728Y176411D01*
X50628Y176421D01*
X50530Y176434D01*
X50431Y176452D01*
X50334Y176473D01*
X50238Y176498D01*
X50142Y176527D01*
X50048Y176560D01*
X49955Y176596D01*
X49864Y176636D01*
X49774Y176680D01*
X49686Y176727D01*
X49600Y176777D01*
X49516Y176831D01*
X49434Y176888D01*
X49355Y176948D01*
X49277Y177012D01*
X49203Y177078D01*
X49131Y177147D01*
X49062Y177219D01*
X48996Y177293D01*
X48932Y177371D01*
X48872Y177450D01*
X48815Y177532D01*
X48761Y177616D01*
X48711Y177702D01*
X48664Y177790D01*
X48620Y177880D01*
X48580Y177971D01*
X48544Y178064D01*
X48511Y178158D01*
X48482Y178254D01*
X48457Y178350D01*
X48436Y178447D01*
X48418Y178546D01*
X48405Y178644D01*
X48395Y178744D01*
X48389Y178843D01*
X48387Y178943D01*
X48387Y181483D01*
X48387Y189140D02*
X59817Y185330D01*
X59817Y192950D02*
X48387Y189140D01*
X56960Y191998D02*
X56960Y186283D01*
X59817Y197776D02*
X48387Y197776D01*
X59817Y204126D01*
X48387Y204126D01*
X61087Y209079D02*
X61087Y214159D01*
X59817Y219620D02*
X48387Y219620D01*
X59817Y218350D02*
X59817Y220890D01*
X48387Y220890D02*
X48387Y218350D01*
X48387Y225970D02*
X59817Y225970D01*
X59817Y232320D02*
X48387Y225970D01*
X48387Y232320D02*
X59817Y232320D01*
D10*
X167640Y195580D02*
X167640Y182880D01*
X167640Y195580D02*
X173990Y201930D01*
X186690Y201930D01*
X193040Y195580D01*
X186690Y176530D02*
X173990Y176530D01*
X167640Y182880D01*
X186690Y176530D02*
X193040Y182880D01*
X193040Y195580D01*
X173990Y201930D02*
X167640Y208280D01*
X167640Y220980D01*
X173990Y227330D01*
X186690Y227330D01*
X193040Y220980D01*
X193040Y208280D01*
X186690Y201930D01*
D11*
X161417Y181483D02*
X161417Y178943D01*
X161415Y178843D01*
X161409Y178744D01*
X161399Y178644D01*
X161386Y178546D01*
X161368Y178447D01*
X161347Y178350D01*
X161322Y178254D01*
X161293Y178158D01*
X161260Y178064D01*
X161224Y177971D01*
X161184Y177880D01*
X161140Y177790D01*
X161093Y177702D01*
X161043Y177616D01*
X160989Y177532D01*
X160932Y177450D01*
X160872Y177371D01*
X160808Y177293D01*
X160742Y177219D01*
X160673Y177147D01*
X160601Y177078D01*
X160527Y177012D01*
X160449Y176948D01*
X160370Y176888D01*
X160288Y176831D01*
X160204Y176777D01*
X160118Y176727D01*
X160030Y176680D01*
X159940Y176636D01*
X159849Y176596D01*
X159756Y176560D01*
X159662Y176527D01*
X159566Y176498D01*
X159470Y176473D01*
X159373Y176452D01*
X159274Y176434D01*
X159176Y176421D01*
X159076Y176411D01*
X158977Y176405D01*
X158877Y176403D01*
X152527Y176403D01*
X152427Y176405D01*
X152328Y176411D01*
X152228Y176421D01*
X152130Y176434D01*
X152031Y176452D01*
X151934Y176473D01*
X151838Y176498D01*
X151742Y176527D01*
X151648Y176560D01*
X151555Y176596D01*
X151464Y176636D01*
X151374Y176680D01*
X151286Y176727D01*
X151200Y176777D01*
X151116Y176831D01*
X151034Y176888D01*
X150955Y176948D01*
X150877Y177012D01*
X150803Y177078D01*
X150731Y177147D01*
X150662Y177219D01*
X150596Y177293D01*
X150532Y177371D01*
X150472Y177450D01*
X150415Y177532D01*
X150361Y177616D01*
X150311Y177702D01*
X150264Y177790D01*
X150220Y177880D01*
X150180Y177971D01*
X150144Y178064D01*
X150111Y178158D01*
X150082Y178254D01*
X150057Y178350D01*
X150036Y178447D01*
X150018Y178546D01*
X150005Y178644D01*
X149995Y178744D01*
X149989Y178843D01*
X149987Y178943D01*
X149987Y181483D01*
X149987Y189140D02*
X161417Y185330D01*
X161417Y192950D02*
X149987Y189140D01*
X158560Y191998D02*
X158560Y186283D01*
X161417Y197776D02*
X149987Y197776D01*
X161417Y204126D01*
X149987Y204126D01*
X162687Y209079D02*
X162687Y214159D01*
X158242Y218731D02*
X153162Y218731D01*
X153051Y218733D01*
X152941Y218739D01*
X152830Y218748D01*
X152720Y218762D01*
X152611Y218779D01*
X152502Y218800D01*
X152394Y218825D01*
X152287Y218854D01*
X152181Y218886D01*
X152076Y218922D01*
X151973Y218962D01*
X151871Y219005D01*
X151770Y219052D01*
X151671Y219103D01*
X151575Y219156D01*
X151480Y219213D01*
X151387Y219274D01*
X151296Y219337D01*
X151207Y219404D01*
X151121Y219474D01*
X151038Y219547D01*
X150956Y219622D01*
X150878Y219700D01*
X150803Y219782D01*
X150730Y219865D01*
X150660Y219951D01*
X150593Y220040D01*
X150530Y220131D01*
X150469Y220224D01*
X150412Y220319D01*
X150359Y220415D01*
X150308Y220514D01*
X150261Y220615D01*
X150218Y220717D01*
X150178Y220820D01*
X150142Y220925D01*
X150110Y221031D01*
X150081Y221138D01*
X150056Y221246D01*
X150035Y221355D01*
X150018Y221464D01*
X150004Y221574D01*
X149995Y221685D01*
X149989Y221795D01*
X149987Y221906D01*
X149989Y222017D01*
X149995Y222127D01*
X150004Y222238D01*
X150018Y222348D01*
X150035Y222457D01*
X150056Y222566D01*
X150081Y222674D01*
X150110Y222781D01*
X150142Y222887D01*
X150178Y222992D01*
X150218Y223095D01*
X150261Y223197D01*
X150308Y223298D01*
X150359Y223397D01*
X150412Y223494D01*
X150469Y223588D01*
X150530Y223681D01*
X150593Y223772D01*
X150660Y223861D01*
X150730Y223947D01*
X150803Y224030D01*
X150878Y224112D01*
X150956Y224190D01*
X151038Y224265D01*
X151121Y224338D01*
X151207Y224408D01*
X151296Y224475D01*
X151387Y224538D01*
X151480Y224599D01*
X151575Y224656D01*
X151671Y224709D01*
X151770Y224760D01*
X151871Y224807D01*
X151973Y224850D01*
X152076Y224890D01*
X152181Y224926D01*
X152287Y224958D01*
X152394Y224987D01*
X152502Y225012D01*
X152611Y225033D01*
X152720Y225050D01*
X152830Y225064D01*
X152941Y225073D01*
X153051Y225079D01*
X153162Y225081D01*
X158242Y225081D01*
X158353Y225079D01*
X158463Y225073D01*
X158574Y225064D01*
X158684Y225050D01*
X158793Y225033D01*
X158902Y225012D01*
X159010Y224987D01*
X159117Y224958D01*
X159223Y224926D01*
X159328Y224890D01*
X159431Y224850D01*
X159533Y224807D01*
X159634Y224760D01*
X159733Y224709D01*
X159830Y224656D01*
X159924Y224599D01*
X160017Y224538D01*
X160108Y224475D01*
X160197Y224408D01*
X160283Y224338D01*
X160366Y224265D01*
X160448Y224190D01*
X160526Y224112D01*
X160601Y224030D01*
X160674Y223947D01*
X160744Y223861D01*
X160811Y223772D01*
X160874Y223681D01*
X160935Y223588D01*
X160992Y223493D01*
X161045Y223397D01*
X161096Y223298D01*
X161143Y223197D01*
X161186Y223095D01*
X161226Y222992D01*
X161262Y222887D01*
X161294Y222781D01*
X161323Y222674D01*
X161348Y222566D01*
X161369Y222457D01*
X161386Y222348D01*
X161400Y222238D01*
X161409Y222127D01*
X161415Y222017D01*
X161417Y221906D01*
X161415Y221795D01*
X161409Y221685D01*
X161400Y221574D01*
X161386Y221464D01*
X161369Y221355D01*
X161348Y221246D01*
X161323Y221138D01*
X161294Y221031D01*
X161262Y220925D01*
X161226Y220820D01*
X161186Y220717D01*
X161143Y220615D01*
X161096Y220514D01*
X161045Y220415D01*
X160992Y220318D01*
X160935Y220224D01*
X160874Y220131D01*
X160811Y220040D01*
X160744Y219951D01*
X160674Y219865D01*
X160601Y219782D01*
X160526Y219700D01*
X160448Y219622D01*
X160366Y219547D01*
X160283Y219474D01*
X160197Y219404D01*
X160108Y219337D01*
X160017Y219274D01*
X159924Y219213D01*
X159829Y219156D01*
X159733Y219103D01*
X159634Y219052D01*
X159533Y219005D01*
X159431Y218962D01*
X159328Y218922D01*
X159223Y218886D01*
X159117Y218854D01*
X159010Y218825D01*
X158902Y218800D01*
X158793Y218779D01*
X158684Y218762D01*
X158574Y218748D01*
X158463Y218739D01*
X158353Y218733D01*
X158242Y218731D01*
X149987Y233654D02*
X149989Y233758D01*
X149995Y233863D01*
X150004Y233967D01*
X150017Y234070D01*
X150035Y234173D01*
X150055Y234275D01*
X150080Y234377D01*
X150108Y234477D01*
X150140Y234577D01*
X150176Y234675D01*
X150215Y234772D01*
X150257Y234867D01*
X150303Y234961D01*
X150353Y235053D01*
X150405Y235143D01*
X150461Y235231D01*
X150521Y235317D01*
X150583Y235401D01*
X150648Y235482D01*
X150716Y235561D01*
X150788Y235638D01*
X150861Y235711D01*
X150938Y235783D01*
X151017Y235851D01*
X151098Y235916D01*
X151182Y235978D01*
X151268Y236038D01*
X151356Y236094D01*
X151446Y236146D01*
X151538Y236196D01*
X151632Y236242D01*
X151727Y236284D01*
X151824Y236323D01*
X151922Y236359D01*
X152022Y236391D01*
X152122Y236419D01*
X152224Y236444D01*
X152326Y236464D01*
X152429Y236482D01*
X152532Y236495D01*
X152636Y236504D01*
X152741Y236510D01*
X152845Y236512D01*
X149987Y233654D02*
X149989Y233536D01*
X149995Y233417D01*
X150004Y233299D01*
X150017Y233182D01*
X150035Y233065D01*
X150055Y232948D01*
X150080Y232832D01*
X150108Y232717D01*
X150141Y232604D01*
X150176Y232491D01*
X150216Y232379D01*
X150258Y232269D01*
X150305Y232160D01*
X150355Y232052D01*
X150408Y231947D01*
X150465Y231843D01*
X150525Y231741D01*
X150588Y231641D01*
X150655Y231543D01*
X150724Y231447D01*
X150797Y231354D01*
X150873Y231263D01*
X150951Y231174D01*
X151033Y231088D01*
X151117Y231005D01*
X151203Y230924D01*
X151293Y230847D01*
X151384Y230772D01*
X151478Y230700D01*
X151575Y230631D01*
X151673Y230566D01*
X151774Y230503D01*
X151877Y230444D01*
X151981Y230388D01*
X152087Y230336D01*
X152195Y230287D01*
X152304Y230242D01*
X152415Y230200D01*
X152527Y230162D01*
X155067Y235559D02*
X154992Y235635D01*
X154913Y235710D01*
X154832Y235781D01*
X154748Y235850D01*
X154662Y235915D01*
X154574Y235977D01*
X154484Y236037D01*
X154392Y236093D01*
X154297Y236146D01*
X154201Y236195D01*
X154103Y236241D01*
X154004Y236284D01*
X153903Y236323D01*
X153801Y236358D01*
X153698Y236390D01*
X153594Y236418D01*
X153489Y236443D01*
X153382Y236464D01*
X153276Y236481D01*
X153169Y236494D01*
X153061Y236503D01*
X152953Y236509D01*
X152845Y236511D01*
X155067Y235559D02*
X161417Y230161D01*
X161417Y236511D01*
D10*
X116840Y195580D02*
X116840Y182880D01*
X116840Y195580D02*
X123190Y201930D01*
X135890Y201930D01*
X142240Y195580D01*
X135890Y176530D02*
X123190Y176530D01*
X116840Y182880D01*
X135890Y176530D02*
X142240Y182880D01*
X142240Y195580D01*
X123190Y201930D02*
X116840Y208280D01*
X116840Y220980D01*
X123190Y227330D01*
X135890Y227330D01*
X142240Y220980D01*
X142240Y208280D01*
X135890Y201930D01*
D11*
X110617Y181483D02*
X110617Y178943D01*
X110615Y178843D01*
X110609Y178744D01*
X110599Y178644D01*
X110586Y178546D01*
X110568Y178447D01*
X110547Y178350D01*
X110522Y178254D01*
X110493Y178158D01*
X110460Y178064D01*
X110424Y177971D01*
X110384Y177880D01*
X110340Y177790D01*
X110293Y177702D01*
X110243Y177616D01*
X110189Y177532D01*
X110132Y177450D01*
X110072Y177371D01*
X110008Y177293D01*
X109942Y177219D01*
X109873Y177147D01*
X109801Y177078D01*
X109727Y177012D01*
X109649Y176948D01*
X109570Y176888D01*
X109488Y176831D01*
X109404Y176777D01*
X109318Y176727D01*
X109230Y176680D01*
X109140Y176636D01*
X109049Y176596D01*
X108956Y176560D01*
X108862Y176527D01*
X108766Y176498D01*
X108670Y176473D01*
X108573Y176452D01*
X108474Y176434D01*
X108376Y176421D01*
X108276Y176411D01*
X108177Y176405D01*
X108077Y176403D01*
X101727Y176403D01*
X101627Y176405D01*
X101528Y176411D01*
X101428Y176421D01*
X101330Y176434D01*
X101231Y176452D01*
X101134Y176473D01*
X101038Y176498D01*
X100942Y176527D01*
X100848Y176560D01*
X100755Y176596D01*
X100664Y176636D01*
X100574Y176680D01*
X100486Y176727D01*
X100400Y176777D01*
X100316Y176831D01*
X100234Y176888D01*
X100155Y176948D01*
X100077Y177012D01*
X100003Y177078D01*
X99931Y177147D01*
X99862Y177219D01*
X99796Y177293D01*
X99732Y177371D01*
X99672Y177450D01*
X99615Y177532D01*
X99561Y177616D01*
X99511Y177702D01*
X99464Y177790D01*
X99420Y177880D01*
X99380Y177971D01*
X99344Y178064D01*
X99311Y178158D01*
X99282Y178254D01*
X99257Y178350D01*
X99236Y178447D01*
X99218Y178546D01*
X99205Y178644D01*
X99195Y178744D01*
X99189Y178843D01*
X99187Y178943D01*
X99187Y181483D01*
X99187Y189140D02*
X110617Y185330D01*
X110617Y192950D02*
X99187Y189140D01*
X107760Y191998D02*
X107760Y186283D01*
X110617Y197776D02*
X99187Y197776D01*
X110617Y204126D01*
X99187Y204126D01*
X111887Y209079D02*
X111887Y214159D01*
X107442Y218731D02*
X102362Y218731D01*
X102251Y218733D01*
X102141Y218739D01*
X102030Y218748D01*
X101920Y218762D01*
X101811Y218779D01*
X101702Y218800D01*
X101594Y218825D01*
X101487Y218854D01*
X101381Y218886D01*
X101276Y218922D01*
X101173Y218962D01*
X101071Y219005D01*
X100970Y219052D01*
X100871Y219103D01*
X100775Y219156D01*
X100680Y219213D01*
X100587Y219274D01*
X100496Y219337D01*
X100407Y219404D01*
X100321Y219474D01*
X100238Y219547D01*
X100156Y219622D01*
X100078Y219700D01*
X100003Y219782D01*
X99930Y219865D01*
X99860Y219951D01*
X99793Y220040D01*
X99730Y220131D01*
X99669Y220224D01*
X99612Y220319D01*
X99559Y220415D01*
X99508Y220514D01*
X99461Y220615D01*
X99418Y220717D01*
X99378Y220820D01*
X99342Y220925D01*
X99310Y221031D01*
X99281Y221138D01*
X99256Y221246D01*
X99235Y221355D01*
X99218Y221464D01*
X99204Y221574D01*
X99195Y221685D01*
X99189Y221795D01*
X99187Y221906D01*
X99189Y222017D01*
X99195Y222127D01*
X99204Y222238D01*
X99218Y222348D01*
X99235Y222457D01*
X99256Y222566D01*
X99281Y222674D01*
X99310Y222781D01*
X99342Y222887D01*
X99378Y222992D01*
X99418Y223095D01*
X99461Y223197D01*
X99508Y223298D01*
X99559Y223397D01*
X99612Y223494D01*
X99669Y223588D01*
X99730Y223681D01*
X99793Y223772D01*
X99860Y223861D01*
X99930Y223947D01*
X100003Y224030D01*
X100078Y224112D01*
X100156Y224190D01*
X100238Y224265D01*
X100321Y224338D01*
X100407Y224408D01*
X100496Y224475D01*
X100587Y224538D01*
X100680Y224599D01*
X100775Y224656D01*
X100871Y224709D01*
X100970Y224760D01*
X101071Y224807D01*
X101173Y224850D01*
X101276Y224890D01*
X101381Y224926D01*
X101487Y224958D01*
X101594Y224987D01*
X101702Y225012D01*
X101811Y225033D01*
X101920Y225050D01*
X102030Y225064D01*
X102141Y225073D01*
X102251Y225079D01*
X102362Y225081D01*
X107442Y225081D01*
X107553Y225079D01*
X107663Y225073D01*
X107774Y225064D01*
X107884Y225050D01*
X107993Y225033D01*
X108102Y225012D01*
X108210Y224987D01*
X108317Y224958D01*
X108423Y224926D01*
X108528Y224890D01*
X108631Y224850D01*
X108733Y224807D01*
X108834Y224760D01*
X108933Y224709D01*
X109030Y224656D01*
X109124Y224599D01*
X109217Y224538D01*
X109308Y224475D01*
X109397Y224408D01*
X109483Y224338D01*
X109566Y224265D01*
X109648Y224190D01*
X109726Y224112D01*
X109801Y224030D01*
X109874Y223947D01*
X109944Y223861D01*
X110011Y223772D01*
X110074Y223681D01*
X110135Y223588D01*
X110192Y223493D01*
X110245Y223397D01*
X110296Y223298D01*
X110343Y223197D01*
X110386Y223095D01*
X110426Y222992D01*
X110462Y222887D01*
X110494Y222781D01*
X110523Y222674D01*
X110548Y222566D01*
X110569Y222457D01*
X110586Y222348D01*
X110600Y222238D01*
X110609Y222127D01*
X110615Y222017D01*
X110617Y221906D01*
X110615Y221795D01*
X110609Y221685D01*
X110600Y221574D01*
X110586Y221464D01*
X110569Y221355D01*
X110548Y221246D01*
X110523Y221138D01*
X110494Y221031D01*
X110462Y220925D01*
X110426Y220820D01*
X110386Y220717D01*
X110343Y220615D01*
X110296Y220514D01*
X110245Y220415D01*
X110192Y220318D01*
X110135Y220224D01*
X110074Y220131D01*
X110011Y220040D01*
X109944Y219951D01*
X109874Y219865D01*
X109801Y219782D01*
X109726Y219700D01*
X109648Y219622D01*
X109566Y219547D01*
X109483Y219474D01*
X109397Y219404D01*
X109308Y219337D01*
X109217Y219274D01*
X109124Y219213D01*
X109029Y219156D01*
X108933Y219103D01*
X108834Y219052D01*
X108733Y219005D01*
X108631Y218962D01*
X108528Y218922D01*
X108423Y218886D01*
X108317Y218854D01*
X108210Y218825D01*
X108102Y218800D01*
X107993Y218779D01*
X107884Y218762D01*
X107774Y218748D01*
X107663Y218739D01*
X107553Y218733D01*
X107442Y218731D01*
X101727Y230161D02*
X99187Y233336D01*
X110617Y233336D01*
X110617Y230161D02*
X110617Y236511D01*
D10*
X169580Y156410D02*
X221580Y156410D01*
X169580Y156410D02*
X169580Y54410D01*
X221580Y54410D01*
X221580Y156410D01*
X220980Y143510D02*
X208280Y156210D01*
X182880Y156210D02*
X170180Y143510D01*
X225552Y115448D02*
X237292Y115448D01*
X237292Y115447D02*
X237425Y115449D01*
X237557Y115455D01*
X237689Y115465D01*
X237821Y115478D01*
X237953Y115496D01*
X238083Y115517D01*
X238214Y115542D01*
X238343Y115571D01*
X238471Y115604D01*
X238599Y115640D01*
X238725Y115680D01*
X238850Y115724D01*
X238974Y115772D01*
X239096Y115823D01*
X239217Y115878D01*
X239336Y115936D01*
X239454Y115998D01*
X239569Y116063D01*
X239683Y116132D01*
X239794Y116203D01*
X239903Y116279D01*
X240010Y116357D01*
X240115Y116438D01*
X240217Y116523D01*
X240317Y116610D01*
X240414Y116700D01*
X240509Y116793D01*
X240600Y116889D01*
X240689Y116987D01*
X240775Y117088D01*
X240858Y117192D01*
X240938Y117298D01*
X241014Y117406D01*
X241088Y117516D01*
X241158Y117629D01*
X241225Y117743D01*
X241288Y117860D01*
X241348Y117978D01*
X241405Y118098D01*
X241458Y118220D01*
X241507Y118343D01*
X241553Y118467D01*
X241595Y118593D01*
X241633Y118720D01*
X241668Y118848D01*
X241699Y118977D01*
X241726Y119106D01*
X241749Y119237D01*
X241769Y119368D01*
X241784Y119500D01*
X241796Y119632D01*
X241804Y119764D01*
X241808Y119897D01*
X241808Y120029D01*
X241804Y120162D01*
X241796Y120294D01*
X241784Y120426D01*
X241769Y120558D01*
X241749Y120689D01*
X241726Y120820D01*
X241699Y120949D01*
X241668Y121078D01*
X241633Y121206D01*
X241595Y121333D01*
X241553Y121459D01*
X241507Y121583D01*
X241458Y121706D01*
X241405Y121828D01*
X241348Y121948D01*
X241288Y122066D01*
X241225Y122183D01*
X241158Y122297D01*
X241088Y122410D01*
X241014Y122520D01*
X240938Y122628D01*
X240858Y122734D01*
X240775Y122838D01*
X240689Y122939D01*
X240600Y123037D01*
X240509Y123133D01*
X240414Y123226D01*
X240317Y123316D01*
X240217Y123403D01*
X240115Y123488D01*
X240010Y123569D01*
X239903Y123647D01*
X239794Y123723D01*
X239683Y123794D01*
X239569Y123863D01*
X239454Y123928D01*
X239336Y123990D01*
X239217Y124048D01*
X239096Y124103D01*
X238974Y124154D01*
X238850Y124202D01*
X238725Y124246D01*
X238599Y124286D01*
X238471Y124322D01*
X238343Y124355D01*
X238214Y124384D01*
X238083Y124409D01*
X237953Y124430D01*
X237821Y124448D01*
X237689Y124461D01*
X237557Y124471D01*
X237425Y124477D01*
X237292Y124479D01*
X225552Y124479D01*
X225552Y135073D02*
X241808Y135073D01*
X233680Y135073D02*
X232325Y132816D01*
X232326Y132816D02*
X232271Y132729D01*
X232214Y132645D01*
X232153Y132563D01*
X232090Y132483D01*
X232023Y132406D01*
X231954Y132331D01*
X231882Y132259D01*
X231807Y132190D01*
X231729Y132123D01*
X231649Y132060D01*
X231567Y131999D01*
X231483Y131942D01*
X231396Y131888D01*
X231308Y131837D01*
X231217Y131790D01*
X231125Y131746D01*
X231031Y131706D01*
X230936Y131669D01*
X230840Y131636D01*
X230742Y131607D01*
X230643Y131581D01*
X230544Y131559D01*
X230443Y131541D01*
X230342Y131526D01*
X230241Y131516D01*
X230139Y131509D01*
X230037Y131506D01*
X229935Y131507D01*
X229833Y131512D01*
X229731Y131521D01*
X229630Y131533D01*
X229529Y131550D01*
X229429Y131570D01*
X229330Y131594D01*
X229232Y131621D01*
X229135Y131653D01*
X229039Y131688D01*
X228945Y131726D01*
X228852Y131768D01*
X228760Y131814D01*
X228671Y131863D01*
X228583Y131915D01*
X228498Y131971D01*
X228414Y132030D01*
X228333Y132092D01*
X228255Y132157D01*
X228179Y132225D01*
X228105Y132295D01*
X228034Y132369D01*
X227966Y132445D01*
X227901Y132524D01*
X227839Y132605D01*
X227780Y132688D01*
X227725Y132773D01*
X227672Y132861D01*
X227623Y132950D01*
X227577Y133042D01*
X227535Y133134D01*
X227496Y133229D01*
X227461Y133325D01*
X227430Y133422D01*
X227402Y133520D01*
X227378Y133619D01*
X227358Y133719D01*
X227359Y133719D02*
X227330Y133889D01*
X227305Y134059D01*
X227284Y134229D01*
X227268Y134401D01*
X227255Y134572D01*
X227247Y134744D01*
X227243Y134916D01*
X227242Y135088D01*
X227247Y135260D01*
X227255Y135432D01*
X227267Y135603D01*
X227283Y135774D01*
X227304Y135945D01*
X227329Y136115D01*
X227357Y136285D01*
X227390Y136454D01*
X227427Y136622D01*
X227468Y136789D01*
X227513Y136955D01*
X227562Y137120D01*
X227614Y137283D01*
X227671Y137446D01*
X227732Y137607D01*
X227796Y137766D01*
X227865Y137924D01*
X227937Y138080D01*
X228012Y138235D01*
X228092Y138387D01*
X228175Y138538D01*
X228262Y138686D01*
X233680Y135073D02*
X235035Y137331D01*
X235034Y137331D02*
X235089Y137418D01*
X235146Y137502D01*
X235207Y137584D01*
X235270Y137664D01*
X235337Y137741D01*
X235406Y137816D01*
X235478Y137888D01*
X235553Y137957D01*
X235631Y138024D01*
X235711Y138087D01*
X235793Y138148D01*
X235877Y138205D01*
X235964Y138259D01*
X236052Y138310D01*
X236143Y138357D01*
X236235Y138401D01*
X236329Y138441D01*
X236424Y138478D01*
X236520Y138511D01*
X236618Y138540D01*
X236717Y138566D01*
X236816Y138588D01*
X236917Y138606D01*
X237018Y138621D01*
X237119Y138631D01*
X237221Y138638D01*
X237323Y138641D01*
X237425Y138640D01*
X237527Y138635D01*
X237629Y138626D01*
X237730Y138614D01*
X237831Y138597D01*
X237931Y138577D01*
X238030Y138553D01*
X238128Y138526D01*
X238225Y138494D01*
X238321Y138459D01*
X238415Y138421D01*
X238508Y138379D01*
X238600Y138333D01*
X238689Y138284D01*
X238777Y138232D01*
X238862Y138176D01*
X238946Y138117D01*
X239027Y138055D01*
X239105Y137990D01*
X239181Y137922D01*
X239255Y137852D01*
X239326Y137778D01*
X239394Y137702D01*
X239459Y137623D01*
X239521Y137542D01*
X239580Y137459D01*
X239635Y137374D01*
X239688Y137286D01*
X239737Y137197D01*
X239783Y137105D01*
X239825Y137013D01*
X239864Y136918D01*
X239899Y136822D01*
X239930Y136725D01*
X239958Y136627D01*
X239982Y136528D01*
X240002Y136428D01*
X240001Y136428D02*
X240030Y136258D01*
X240055Y136088D01*
X240076Y135917D01*
X240092Y135746D01*
X240105Y135575D01*
X240113Y135403D01*
X240117Y135231D01*
X240118Y135059D01*
X240113Y134887D01*
X240105Y134715D01*
X240093Y134544D01*
X240077Y134373D01*
X240056Y134202D01*
X240031Y134032D01*
X240003Y133862D01*
X239970Y133693D01*
X239933Y133525D01*
X239892Y133358D01*
X239847Y133192D01*
X239798Y133027D01*
X239746Y132864D01*
X239689Y132701D01*
X239628Y132540D01*
X239564Y132381D01*
X239496Y132223D01*
X239423Y132067D01*
X239348Y131913D01*
X239268Y131760D01*
X239185Y131609D01*
X239098Y131461D01*
X229164Y145147D02*
X225552Y149662D01*
X241808Y149662D01*
X241808Y145147D02*
X241808Y154178D01*
X166878Y99434D02*
X150622Y110272D01*
X150622Y99434D02*
X166878Y110272D01*
X166878Y119442D02*
X150622Y119442D01*
X150622Y114927D02*
X150622Y123958D01*
X166878Y129516D02*
X166878Y134031D01*
X166876Y134164D01*
X166870Y134296D01*
X166860Y134428D01*
X166847Y134560D01*
X166829Y134692D01*
X166808Y134822D01*
X166783Y134953D01*
X166754Y135082D01*
X166721Y135210D01*
X166685Y135338D01*
X166645Y135464D01*
X166601Y135589D01*
X166553Y135713D01*
X166502Y135835D01*
X166447Y135956D01*
X166389Y136075D01*
X166327Y136193D01*
X166262Y136308D01*
X166193Y136422D01*
X166122Y136533D01*
X166046Y136642D01*
X165968Y136749D01*
X165887Y136854D01*
X165802Y136956D01*
X165715Y137056D01*
X165625Y137153D01*
X165532Y137248D01*
X165436Y137339D01*
X165338Y137428D01*
X165237Y137514D01*
X165133Y137597D01*
X165027Y137677D01*
X164919Y137753D01*
X164809Y137827D01*
X164696Y137897D01*
X164582Y137964D01*
X164465Y138027D01*
X164347Y138087D01*
X164227Y138144D01*
X164105Y138197D01*
X163982Y138246D01*
X163858Y138292D01*
X163732Y138334D01*
X163605Y138372D01*
X163477Y138407D01*
X163348Y138438D01*
X163219Y138465D01*
X163088Y138488D01*
X162957Y138508D01*
X162825Y138523D01*
X162693Y138535D01*
X162561Y138543D01*
X162428Y138547D01*
X162296Y138547D01*
X162163Y138543D01*
X162031Y138535D01*
X161899Y138523D01*
X161767Y138508D01*
X161636Y138488D01*
X161505Y138465D01*
X161376Y138438D01*
X161247Y138407D01*
X161119Y138372D01*
X160992Y138334D01*
X160866Y138292D01*
X160742Y138246D01*
X160619Y138197D01*
X160497Y138144D01*
X160377Y138087D01*
X160259Y138027D01*
X160142Y137964D01*
X160028Y137897D01*
X159915Y137827D01*
X159805Y137753D01*
X159697Y137677D01*
X159591Y137597D01*
X159487Y137514D01*
X159386Y137428D01*
X159288Y137339D01*
X159192Y137248D01*
X159099Y137153D01*
X159009Y137056D01*
X158922Y136956D01*
X158837Y136854D01*
X158756Y136749D01*
X158678Y136642D01*
X158602Y136533D01*
X158531Y136422D01*
X158462Y136308D01*
X158397Y136193D01*
X158335Y136075D01*
X158277Y135956D01*
X158222Y135835D01*
X158171Y135713D01*
X158123Y135589D01*
X158079Y135464D01*
X158039Y135338D01*
X158003Y135210D01*
X157970Y135082D01*
X157941Y134953D01*
X157916Y134822D01*
X157895Y134692D01*
X157877Y134560D01*
X157864Y134428D01*
X157854Y134296D01*
X157848Y134164D01*
X157846Y134031D01*
X150622Y134934D02*
X150622Y129516D01*
X150622Y134934D02*
X150624Y135053D01*
X150630Y135173D01*
X150640Y135292D01*
X150654Y135410D01*
X150671Y135529D01*
X150693Y135646D01*
X150718Y135763D01*
X150748Y135878D01*
X150781Y135993D01*
X150818Y136107D01*
X150858Y136219D01*
X150903Y136330D01*
X150951Y136439D01*
X151002Y136547D01*
X151057Y136653D01*
X151116Y136757D01*
X151178Y136859D01*
X151243Y136959D01*
X151312Y137057D01*
X151384Y137153D01*
X151459Y137246D01*
X151536Y137336D01*
X151617Y137424D01*
X151701Y137509D01*
X151788Y137591D01*
X151877Y137671D01*
X151969Y137747D01*
X152063Y137821D01*
X152160Y137891D01*
X152258Y137958D01*
X152359Y138022D01*
X152463Y138082D01*
X152568Y138139D01*
X152675Y138192D01*
X152783Y138242D01*
X152893Y138288D01*
X153005Y138330D01*
X153118Y138369D01*
X153232Y138404D01*
X153347Y138435D01*
X153464Y138463D01*
X153581Y138486D01*
X153698Y138506D01*
X153817Y138522D01*
X153936Y138534D01*
X154055Y138542D01*
X154174Y138546D01*
X154294Y138546D01*
X154413Y138542D01*
X154532Y138534D01*
X154651Y138522D01*
X154770Y138506D01*
X154887Y138486D01*
X155004Y138463D01*
X155121Y138435D01*
X155236Y138404D01*
X155350Y138369D01*
X155463Y138330D01*
X155575Y138288D01*
X155685Y138242D01*
X155793Y138192D01*
X155900Y138139D01*
X156005Y138082D01*
X156109Y138022D01*
X156210Y137958D01*
X156308Y137891D01*
X156405Y137821D01*
X156499Y137747D01*
X156591Y137671D01*
X156680Y137591D01*
X156767Y137509D01*
X156851Y137424D01*
X156932Y137336D01*
X157009Y137246D01*
X157084Y137153D01*
X157156Y137057D01*
X157225Y136959D01*
X157290Y136859D01*
X157352Y136757D01*
X157411Y136653D01*
X157466Y136547D01*
X157517Y136439D01*
X157565Y136330D01*
X157610Y136219D01*
X157650Y136107D01*
X157687Y135993D01*
X157720Y135878D01*
X157750Y135763D01*
X157775Y135646D01*
X157797Y135529D01*
X157814Y135410D01*
X157828Y135292D01*
X157838Y135173D01*
X157844Y135053D01*
X157846Y134934D01*
X157847Y134934D02*
X157847Y131322D01*
X158750Y145147D02*
X158430Y145151D01*
X158111Y145162D01*
X157791Y145181D01*
X157473Y145208D01*
X157155Y145242D01*
X156838Y145284D01*
X156522Y145334D01*
X156207Y145391D01*
X155894Y145455D01*
X155582Y145527D01*
X155272Y145606D01*
X154965Y145693D01*
X154659Y145787D01*
X154356Y145888D01*
X154055Y145997D01*
X153757Y146112D01*
X153461Y146235D01*
X153169Y146365D01*
X152880Y146502D01*
X152879Y146502D02*
X152771Y146541D01*
X152664Y146584D01*
X152559Y146630D01*
X152456Y146680D01*
X152354Y146734D01*
X152254Y146791D01*
X152156Y146852D01*
X152060Y146916D01*
X151967Y146983D01*
X151876Y147053D01*
X151787Y147127D01*
X151701Y147203D01*
X151618Y147283D01*
X151537Y147365D01*
X151459Y147450D01*
X151385Y147537D01*
X151313Y147628D01*
X151244Y147720D01*
X151179Y147815D01*
X151117Y147912D01*
X151058Y148011D01*
X151003Y148112D01*
X150952Y148215D01*
X150904Y148320D01*
X150859Y148426D01*
X150818Y148533D01*
X150781Y148642D01*
X150748Y148753D01*
X150719Y148864D01*
X150693Y148976D01*
X150671Y149089D01*
X150654Y149203D01*
X150640Y149317D01*
X150630Y149432D01*
X150624Y149547D01*
X150622Y149662D01*
X150624Y149777D01*
X150630Y149892D01*
X150640Y150007D01*
X150654Y150121D01*
X150671Y150235D01*
X150693Y150348D01*
X150719Y150460D01*
X150748Y150572D01*
X150781Y150682D01*
X150818Y150791D01*
X150859Y150899D01*
X150904Y151005D01*
X150952Y151110D01*
X151003Y151212D01*
X151059Y151314D01*
X151117Y151413D01*
X151179Y151510D01*
X151245Y151605D01*
X151313Y151697D01*
X151385Y151787D01*
X151459Y151875D01*
X151537Y151960D01*
X151618Y152042D01*
X151701Y152121D01*
X151787Y152198D01*
X151876Y152271D01*
X151967Y152342D01*
X152061Y152409D01*
X152156Y152473D01*
X152254Y152534D01*
X152354Y152591D01*
X152456Y152644D01*
X152560Y152695D01*
X152665Y152741D01*
X152772Y152784D01*
X152880Y152823D01*
X153169Y152960D01*
X153461Y153090D01*
X153757Y153213D01*
X154055Y153328D01*
X154356Y153437D01*
X154659Y153538D01*
X154965Y153632D01*
X155272Y153719D01*
X155582Y153798D01*
X155894Y153870D01*
X156207Y153934D01*
X156522Y153991D01*
X156838Y154041D01*
X157155Y154083D01*
X157473Y154117D01*
X157791Y154144D01*
X158111Y154163D01*
X158430Y154174D01*
X158750Y154178D01*
X158750Y145147D02*
X159070Y145151D01*
X159389Y145162D01*
X159709Y145181D01*
X160027Y145208D01*
X160345Y145242D01*
X160662Y145284D01*
X160978Y145334D01*
X161293Y145391D01*
X161606Y145455D01*
X161918Y145527D01*
X162228Y145606D01*
X162535Y145693D01*
X162841Y145787D01*
X163144Y145888D01*
X163445Y145997D01*
X163743Y146112D01*
X164039Y146235D01*
X164331Y146365D01*
X164620Y146502D01*
X164621Y146501D02*
X164729Y146540D01*
X164836Y146583D01*
X164941Y146629D01*
X165045Y146680D01*
X165147Y146733D01*
X165247Y146790D01*
X165345Y146851D01*
X165440Y146915D01*
X165534Y146982D01*
X165625Y147053D01*
X165714Y147126D01*
X165800Y147203D01*
X165883Y147282D01*
X165964Y147364D01*
X166042Y147449D01*
X166116Y147537D01*
X166188Y147627D01*
X166257Y147720D01*
X166322Y147814D01*
X166384Y147911D01*
X166442Y148011D01*
X166498Y148112D01*
X166549Y148214D01*
X166597Y148319D01*
X166642Y148425D01*
X166683Y148533D01*
X166720Y148642D01*
X166753Y148752D01*
X166782Y148864D01*
X166808Y148976D01*
X166830Y149089D01*
X166847Y149203D01*
X166861Y149317D01*
X166871Y149432D01*
X166877Y149547D01*
X166879Y149662D01*
X164620Y152823D02*
X164331Y152960D01*
X164039Y153090D01*
X163743Y153213D01*
X163445Y153328D01*
X163144Y153437D01*
X162841Y153538D01*
X162535Y153632D01*
X162228Y153719D01*
X161918Y153798D01*
X161606Y153870D01*
X161293Y153934D01*
X160978Y153991D01*
X160662Y154041D01*
X160345Y154083D01*
X160027Y154117D01*
X159709Y154144D01*
X159389Y154163D01*
X159070Y154174D01*
X158750Y154178D01*
X164620Y152823D02*
X164728Y152784D01*
X164835Y152741D01*
X164940Y152695D01*
X165044Y152644D01*
X165146Y152591D01*
X165246Y152534D01*
X165344Y152473D01*
X165439Y152409D01*
X165533Y152342D01*
X165624Y152271D01*
X165713Y152198D01*
X165799Y152121D01*
X165882Y152042D01*
X165963Y151960D01*
X166041Y151875D01*
X166115Y151787D01*
X166187Y151697D01*
X166256Y151604D01*
X166321Y151510D01*
X166383Y151413D01*
X166441Y151313D01*
X166497Y151212D01*
X166548Y151109D01*
X166596Y151005D01*
X166641Y150899D01*
X166682Y150791D01*
X166719Y150682D01*
X166752Y150572D01*
X166781Y150460D01*
X166807Y150348D01*
X166829Y150235D01*
X166846Y150121D01*
X166860Y150007D01*
X166870Y149892D01*
X166876Y149777D01*
X166878Y149662D01*
X163266Y146050D02*
X154234Y153275D01*
X145380Y156410D02*
X93380Y156410D01*
X93380Y54410D01*
X145380Y54410D01*
X145380Y156410D01*
X144780Y143510D02*
X132080Y156210D01*
X106680Y156210D02*
X93980Y143510D01*
X149352Y115448D02*
X161092Y115448D01*
X161092Y115447D02*
X161225Y115449D01*
X161357Y115455D01*
X161489Y115465D01*
X161621Y115478D01*
X161753Y115496D01*
X161883Y115517D01*
X162014Y115542D01*
X162143Y115571D01*
X162271Y115604D01*
X162399Y115640D01*
X162525Y115680D01*
X162650Y115724D01*
X162774Y115772D01*
X162896Y115823D01*
X163017Y115878D01*
X163136Y115936D01*
X163254Y115998D01*
X163369Y116063D01*
X163483Y116132D01*
X163594Y116203D01*
X163703Y116279D01*
X163810Y116357D01*
X163915Y116438D01*
X164017Y116523D01*
X164117Y116610D01*
X164214Y116700D01*
X164309Y116793D01*
X164400Y116889D01*
X164489Y116987D01*
X164575Y117088D01*
X164658Y117192D01*
X164738Y117298D01*
X164814Y117406D01*
X164888Y117516D01*
X164958Y117629D01*
X165025Y117743D01*
X165088Y117860D01*
X165148Y117978D01*
X165205Y118098D01*
X165258Y118220D01*
X165307Y118343D01*
X165353Y118467D01*
X165395Y118593D01*
X165433Y118720D01*
X165468Y118848D01*
X165499Y118977D01*
X165526Y119106D01*
X165549Y119237D01*
X165569Y119368D01*
X165584Y119500D01*
X165596Y119632D01*
X165604Y119764D01*
X165608Y119897D01*
X165608Y120029D01*
X165604Y120162D01*
X165596Y120294D01*
X165584Y120426D01*
X165569Y120558D01*
X165549Y120689D01*
X165526Y120820D01*
X165499Y120949D01*
X165468Y121078D01*
X165433Y121206D01*
X165395Y121333D01*
X165353Y121459D01*
X165307Y121583D01*
X165258Y121706D01*
X165205Y121828D01*
X165148Y121948D01*
X165088Y122066D01*
X165025Y122183D01*
X164958Y122297D01*
X164888Y122410D01*
X164814Y122520D01*
X164738Y122628D01*
X164658Y122734D01*
X164575Y122838D01*
X164489Y122939D01*
X164400Y123037D01*
X164309Y123133D01*
X164214Y123226D01*
X164117Y123316D01*
X164017Y123403D01*
X163915Y123488D01*
X163810Y123569D01*
X163703Y123647D01*
X163594Y123723D01*
X163483Y123794D01*
X163369Y123863D01*
X163254Y123928D01*
X163136Y123990D01*
X163017Y124048D01*
X162896Y124103D01*
X162774Y124154D01*
X162650Y124202D01*
X162525Y124246D01*
X162399Y124286D01*
X162271Y124322D01*
X162143Y124355D01*
X162014Y124384D01*
X161883Y124409D01*
X161753Y124430D01*
X161621Y124448D01*
X161489Y124461D01*
X161357Y124471D01*
X161225Y124477D01*
X161092Y124479D01*
X149352Y124479D01*
X149352Y135073D02*
X165608Y135073D01*
X157480Y135073D02*
X156125Y132816D01*
X156126Y132816D02*
X156071Y132729D01*
X156014Y132645D01*
X155953Y132563D01*
X155890Y132483D01*
X155823Y132406D01*
X155754Y132331D01*
X155682Y132259D01*
X155607Y132190D01*
X155529Y132123D01*
X155449Y132060D01*
X155367Y131999D01*
X155283Y131942D01*
X155196Y131888D01*
X155108Y131837D01*
X155017Y131790D01*
X154925Y131746D01*
X154831Y131706D01*
X154736Y131669D01*
X154640Y131636D01*
X154542Y131607D01*
X154443Y131581D01*
X154344Y131559D01*
X154243Y131541D01*
X154142Y131526D01*
X154041Y131516D01*
X153939Y131509D01*
X153837Y131506D01*
X153735Y131507D01*
X153633Y131512D01*
X153531Y131521D01*
X153430Y131533D01*
X153329Y131550D01*
X153229Y131570D01*
X153130Y131594D01*
X153032Y131621D01*
X152935Y131653D01*
X152839Y131688D01*
X152745Y131726D01*
X152652Y131768D01*
X152560Y131814D01*
X152471Y131863D01*
X152383Y131915D01*
X152298Y131971D01*
X152214Y132030D01*
X152133Y132092D01*
X152055Y132157D01*
X151979Y132225D01*
X151905Y132295D01*
X151834Y132369D01*
X151766Y132445D01*
X151701Y132524D01*
X151639Y132605D01*
X151580Y132688D01*
X151525Y132773D01*
X151472Y132861D01*
X151423Y132950D01*
X151377Y133042D01*
X151335Y133134D01*
X151296Y133229D01*
X151261Y133325D01*
X151230Y133422D01*
X151202Y133520D01*
X151178Y133619D01*
X151158Y133719D01*
X151159Y133719D02*
X151130Y133889D01*
X151105Y134059D01*
X151084Y134229D01*
X151068Y134401D01*
X151055Y134572D01*
X151047Y134744D01*
X151043Y134916D01*
X151042Y135088D01*
X151047Y135260D01*
X151055Y135432D01*
X151067Y135603D01*
X151083Y135774D01*
X151104Y135945D01*
X151129Y136115D01*
X151157Y136285D01*
X151190Y136454D01*
X151227Y136622D01*
X151268Y136789D01*
X151313Y136955D01*
X151362Y137120D01*
X151414Y137283D01*
X151471Y137446D01*
X151532Y137607D01*
X151596Y137766D01*
X151665Y137924D01*
X151737Y138080D01*
X151812Y138235D01*
X151892Y138387D01*
X151975Y138538D01*
X152062Y138686D01*
X157480Y135073D02*
X158835Y137331D01*
X158834Y137331D02*
X158889Y137418D01*
X158946Y137502D01*
X159007Y137584D01*
X159070Y137664D01*
X159137Y137741D01*
X159206Y137816D01*
X159278Y137888D01*
X159353Y137957D01*
X159431Y138024D01*
X159511Y138087D01*
X159593Y138148D01*
X159677Y138205D01*
X159764Y138259D01*
X159852Y138310D01*
X159943Y138357D01*
X160035Y138401D01*
X160129Y138441D01*
X160224Y138478D01*
X160320Y138511D01*
X160418Y138540D01*
X160517Y138566D01*
X160616Y138588D01*
X160717Y138606D01*
X160818Y138621D01*
X160919Y138631D01*
X161021Y138638D01*
X161123Y138641D01*
X161225Y138640D01*
X161327Y138635D01*
X161429Y138626D01*
X161530Y138614D01*
X161631Y138597D01*
X161731Y138577D01*
X161830Y138553D01*
X161928Y138526D01*
X162025Y138494D01*
X162121Y138459D01*
X162215Y138421D01*
X162308Y138379D01*
X162400Y138333D01*
X162489Y138284D01*
X162577Y138232D01*
X162662Y138176D01*
X162746Y138117D01*
X162827Y138055D01*
X162905Y137990D01*
X162981Y137922D01*
X163055Y137852D01*
X163126Y137778D01*
X163194Y137702D01*
X163259Y137623D01*
X163321Y137542D01*
X163380Y137459D01*
X163435Y137374D01*
X163488Y137286D01*
X163537Y137197D01*
X163583Y137105D01*
X163625Y137013D01*
X163664Y136918D01*
X163699Y136822D01*
X163730Y136725D01*
X163758Y136627D01*
X163782Y136528D01*
X163802Y136428D01*
X163801Y136428D02*
X163830Y136258D01*
X163855Y136088D01*
X163876Y135917D01*
X163892Y135746D01*
X163905Y135575D01*
X163913Y135403D01*
X163917Y135231D01*
X163918Y135059D01*
X163913Y134887D01*
X163905Y134715D01*
X163893Y134544D01*
X163877Y134373D01*
X163856Y134202D01*
X163831Y134032D01*
X163803Y133862D01*
X163770Y133693D01*
X163733Y133525D01*
X163692Y133358D01*
X163647Y133192D01*
X163598Y133027D01*
X163546Y132864D01*
X163489Y132701D01*
X163428Y132540D01*
X163364Y132381D01*
X163296Y132223D01*
X163223Y132067D01*
X163148Y131913D01*
X163068Y131760D01*
X162985Y131609D01*
X162898Y131461D01*
X149352Y150114D02*
X149354Y150239D01*
X149360Y150364D01*
X149369Y150489D01*
X149383Y150613D01*
X149400Y150737D01*
X149421Y150861D01*
X149446Y150983D01*
X149475Y151105D01*
X149507Y151226D01*
X149543Y151346D01*
X149583Y151465D01*
X149626Y151582D01*
X149673Y151698D01*
X149724Y151813D01*
X149778Y151925D01*
X149836Y152037D01*
X149896Y152146D01*
X149961Y152253D01*
X150028Y152359D01*
X150099Y152462D01*
X150173Y152563D01*
X150250Y152662D01*
X150330Y152758D01*
X150413Y152852D01*
X150498Y152943D01*
X150587Y153032D01*
X150678Y153117D01*
X150772Y153200D01*
X150868Y153280D01*
X150967Y153357D01*
X151068Y153431D01*
X151171Y153502D01*
X151277Y153569D01*
X151384Y153634D01*
X151493Y153694D01*
X151605Y153752D01*
X151717Y153806D01*
X151832Y153857D01*
X151948Y153904D01*
X152065Y153947D01*
X152184Y153987D01*
X152304Y154023D01*
X152425Y154055D01*
X152547Y154084D01*
X152669Y154109D01*
X152793Y154130D01*
X152917Y154147D01*
X153041Y154161D01*
X153166Y154170D01*
X153291Y154176D01*
X153416Y154178D01*
X149352Y150114D02*
X149354Y149971D01*
X149360Y149829D01*
X149370Y149686D01*
X149383Y149544D01*
X149401Y149403D01*
X149422Y149261D01*
X149447Y149121D01*
X149476Y148981D01*
X149509Y148842D01*
X149546Y148704D01*
X149586Y148567D01*
X149630Y148432D01*
X149678Y148297D01*
X149730Y148164D01*
X149785Y148032D01*
X149844Y147902D01*
X149906Y147774D01*
X149972Y147647D01*
X150041Y147522D01*
X150113Y147399D01*
X150189Y147278D01*
X150268Y147160D01*
X150351Y147043D01*
X150436Y146929D01*
X150525Y146817D01*
X150616Y146708D01*
X150711Y146601D01*
X150808Y146496D01*
X150909Y146395D01*
X151012Y146296D01*
X151117Y146200D01*
X151226Y146107D01*
X151337Y146017D01*
X151450Y145930D01*
X151565Y145846D01*
X151683Y145766D01*
X151803Y145688D01*
X151925Y145614D01*
X152049Y145544D01*
X152175Y145476D01*
X152303Y145413D01*
X152432Y145352D01*
X152563Y145295D01*
X152695Y145242D01*
X152829Y145193D01*
X152964Y145147D01*
X156577Y152823D02*
X156485Y152917D01*
X156391Y153007D01*
X156294Y153095D01*
X156194Y153180D01*
X156092Y153262D01*
X155987Y153340D01*
X155880Y153416D01*
X155771Y153488D01*
X155660Y153557D01*
X155546Y153623D01*
X155431Y153685D01*
X155314Y153744D01*
X155195Y153799D01*
X155075Y153850D01*
X154953Y153898D01*
X154830Y153943D01*
X154706Y153983D01*
X154580Y154020D01*
X154453Y154053D01*
X154326Y154082D01*
X154197Y154108D01*
X154068Y154129D01*
X153938Y154147D01*
X153808Y154160D01*
X153678Y154170D01*
X153547Y154176D01*
X153416Y154178D01*
X156577Y152823D02*
X165608Y145147D01*
X165608Y154178D01*
X90678Y99434D02*
X74422Y110272D01*
X74422Y99434D02*
X90678Y110272D01*
X90678Y119442D02*
X74422Y119442D01*
X74422Y114927D02*
X74422Y123958D01*
X90678Y129516D02*
X90678Y134031D01*
X90676Y134164D01*
X90670Y134296D01*
X90660Y134428D01*
X90647Y134560D01*
X90629Y134692D01*
X90608Y134822D01*
X90583Y134953D01*
X90554Y135082D01*
X90521Y135210D01*
X90485Y135338D01*
X90445Y135464D01*
X90401Y135589D01*
X90353Y135713D01*
X90302Y135835D01*
X90247Y135956D01*
X90189Y136075D01*
X90127Y136193D01*
X90062Y136308D01*
X89993Y136422D01*
X89922Y136533D01*
X89846Y136642D01*
X89768Y136749D01*
X89687Y136854D01*
X89602Y136956D01*
X89515Y137056D01*
X89425Y137153D01*
X89332Y137248D01*
X89236Y137339D01*
X89138Y137428D01*
X89037Y137514D01*
X88933Y137597D01*
X88827Y137677D01*
X88719Y137753D01*
X88609Y137827D01*
X88496Y137897D01*
X88382Y137964D01*
X88265Y138027D01*
X88147Y138087D01*
X88027Y138144D01*
X87905Y138197D01*
X87782Y138246D01*
X87658Y138292D01*
X87532Y138334D01*
X87405Y138372D01*
X87277Y138407D01*
X87148Y138438D01*
X87019Y138465D01*
X86888Y138488D01*
X86757Y138508D01*
X86625Y138523D01*
X86493Y138535D01*
X86361Y138543D01*
X86228Y138547D01*
X86096Y138547D01*
X85963Y138543D01*
X85831Y138535D01*
X85699Y138523D01*
X85567Y138508D01*
X85436Y138488D01*
X85305Y138465D01*
X85176Y138438D01*
X85047Y138407D01*
X84919Y138372D01*
X84792Y138334D01*
X84666Y138292D01*
X84542Y138246D01*
X84419Y138197D01*
X84297Y138144D01*
X84177Y138087D01*
X84059Y138027D01*
X83942Y137964D01*
X83828Y137897D01*
X83715Y137827D01*
X83605Y137753D01*
X83497Y137677D01*
X83391Y137597D01*
X83287Y137514D01*
X83186Y137428D01*
X83088Y137339D01*
X82992Y137248D01*
X82899Y137153D01*
X82809Y137056D01*
X82722Y136956D01*
X82637Y136854D01*
X82556Y136749D01*
X82478Y136642D01*
X82402Y136533D01*
X82331Y136422D01*
X82262Y136308D01*
X82197Y136193D01*
X82135Y136075D01*
X82077Y135956D01*
X82022Y135835D01*
X81971Y135713D01*
X81923Y135589D01*
X81879Y135464D01*
X81839Y135338D01*
X81803Y135210D01*
X81770Y135082D01*
X81741Y134953D01*
X81716Y134822D01*
X81695Y134692D01*
X81677Y134560D01*
X81664Y134428D01*
X81654Y134296D01*
X81648Y134164D01*
X81646Y134031D01*
X74422Y134934D02*
X74422Y129516D01*
X74422Y134934D02*
X74424Y135053D01*
X74430Y135173D01*
X74440Y135292D01*
X74454Y135410D01*
X74471Y135529D01*
X74493Y135646D01*
X74518Y135763D01*
X74548Y135878D01*
X74581Y135993D01*
X74618Y136107D01*
X74658Y136219D01*
X74703Y136330D01*
X74751Y136439D01*
X74802Y136547D01*
X74857Y136653D01*
X74916Y136757D01*
X74978Y136859D01*
X75043Y136959D01*
X75112Y137057D01*
X75184Y137153D01*
X75259Y137246D01*
X75336Y137336D01*
X75417Y137424D01*
X75501Y137509D01*
X75588Y137591D01*
X75677Y137671D01*
X75769Y137747D01*
X75863Y137821D01*
X75960Y137891D01*
X76058Y137958D01*
X76159Y138022D01*
X76263Y138082D01*
X76368Y138139D01*
X76475Y138192D01*
X76583Y138242D01*
X76693Y138288D01*
X76805Y138330D01*
X76918Y138369D01*
X77032Y138404D01*
X77147Y138435D01*
X77264Y138463D01*
X77381Y138486D01*
X77498Y138506D01*
X77617Y138522D01*
X77736Y138534D01*
X77855Y138542D01*
X77974Y138546D01*
X78094Y138546D01*
X78213Y138542D01*
X78332Y138534D01*
X78451Y138522D01*
X78570Y138506D01*
X78687Y138486D01*
X78804Y138463D01*
X78921Y138435D01*
X79036Y138404D01*
X79150Y138369D01*
X79263Y138330D01*
X79375Y138288D01*
X79485Y138242D01*
X79593Y138192D01*
X79700Y138139D01*
X79805Y138082D01*
X79909Y138022D01*
X80010Y137958D01*
X80108Y137891D01*
X80205Y137821D01*
X80299Y137747D01*
X80391Y137671D01*
X80480Y137591D01*
X80567Y137509D01*
X80651Y137424D01*
X80732Y137336D01*
X80809Y137246D01*
X80884Y137153D01*
X80956Y137057D01*
X81025Y136959D01*
X81090Y136859D01*
X81152Y136757D01*
X81211Y136653D01*
X81266Y136547D01*
X81317Y136439D01*
X81365Y136330D01*
X81410Y136219D01*
X81450Y136107D01*
X81487Y135993D01*
X81520Y135878D01*
X81550Y135763D01*
X81575Y135646D01*
X81597Y135529D01*
X81614Y135410D01*
X81628Y135292D01*
X81638Y135173D01*
X81644Y135053D01*
X81646Y134934D01*
X81647Y134934D02*
X81647Y131322D01*
X82550Y145147D02*
X82230Y145151D01*
X81911Y145162D01*
X81591Y145181D01*
X81273Y145208D01*
X80955Y145242D01*
X80638Y145284D01*
X80322Y145334D01*
X80007Y145391D01*
X79694Y145455D01*
X79382Y145527D01*
X79072Y145606D01*
X78765Y145693D01*
X78459Y145787D01*
X78156Y145888D01*
X77855Y145997D01*
X77557Y146112D01*
X77261Y146235D01*
X76969Y146365D01*
X76680Y146502D01*
X76679Y146502D02*
X76571Y146541D01*
X76464Y146584D01*
X76359Y146630D01*
X76256Y146680D01*
X76154Y146734D01*
X76054Y146791D01*
X75956Y146852D01*
X75860Y146916D01*
X75767Y146983D01*
X75676Y147053D01*
X75587Y147127D01*
X75501Y147203D01*
X75418Y147283D01*
X75337Y147365D01*
X75259Y147450D01*
X75185Y147537D01*
X75113Y147628D01*
X75044Y147720D01*
X74979Y147815D01*
X74917Y147912D01*
X74858Y148011D01*
X74803Y148112D01*
X74752Y148215D01*
X74704Y148320D01*
X74659Y148426D01*
X74618Y148533D01*
X74581Y148642D01*
X74548Y148753D01*
X74519Y148864D01*
X74493Y148976D01*
X74471Y149089D01*
X74454Y149203D01*
X74440Y149317D01*
X74430Y149432D01*
X74424Y149547D01*
X74422Y149662D01*
X74424Y149777D01*
X74430Y149892D01*
X74440Y150007D01*
X74454Y150121D01*
X74471Y150235D01*
X74493Y150348D01*
X74519Y150460D01*
X74548Y150572D01*
X74581Y150682D01*
X74618Y150791D01*
X74659Y150899D01*
X74704Y151005D01*
X74752Y151110D01*
X74803Y151212D01*
X74859Y151314D01*
X74917Y151413D01*
X74979Y151510D01*
X75045Y151605D01*
X75113Y151697D01*
X75185Y151787D01*
X75259Y151875D01*
X75337Y151960D01*
X75418Y152042D01*
X75501Y152121D01*
X75587Y152198D01*
X75676Y152271D01*
X75767Y152342D01*
X75861Y152409D01*
X75956Y152473D01*
X76054Y152534D01*
X76154Y152591D01*
X76256Y152644D01*
X76360Y152695D01*
X76465Y152741D01*
X76572Y152784D01*
X76680Y152823D01*
X76969Y152960D01*
X77261Y153090D01*
X77557Y153213D01*
X77855Y153328D01*
X78156Y153437D01*
X78459Y153538D01*
X78765Y153632D01*
X79072Y153719D01*
X79382Y153798D01*
X79694Y153870D01*
X80007Y153934D01*
X80322Y153991D01*
X80638Y154041D01*
X80955Y154083D01*
X81273Y154117D01*
X81591Y154144D01*
X81911Y154163D01*
X82230Y154174D01*
X82550Y154178D01*
X82550Y145147D02*
X82870Y145151D01*
X83189Y145162D01*
X83509Y145181D01*
X83827Y145208D01*
X84145Y145242D01*
X84462Y145284D01*
X84778Y145334D01*
X85093Y145391D01*
X85406Y145455D01*
X85718Y145527D01*
X86028Y145606D01*
X86335Y145693D01*
X86641Y145787D01*
X86944Y145888D01*
X87245Y145997D01*
X87543Y146112D01*
X87839Y146235D01*
X88131Y146365D01*
X88420Y146502D01*
X88421Y146501D02*
X88529Y146540D01*
X88636Y146583D01*
X88741Y146629D01*
X88845Y146680D01*
X88947Y146733D01*
X89047Y146790D01*
X89145Y146851D01*
X89240Y146915D01*
X89334Y146982D01*
X89425Y147053D01*
X89514Y147126D01*
X89600Y147203D01*
X89683Y147282D01*
X89764Y147364D01*
X89842Y147449D01*
X89916Y147537D01*
X89988Y147627D01*
X90057Y147720D01*
X90122Y147814D01*
X90184Y147911D01*
X90242Y148011D01*
X90298Y148112D01*
X90349Y148214D01*
X90397Y148319D01*
X90442Y148425D01*
X90483Y148533D01*
X90520Y148642D01*
X90553Y148752D01*
X90582Y148864D01*
X90608Y148976D01*
X90630Y149089D01*
X90647Y149203D01*
X90661Y149317D01*
X90671Y149432D01*
X90677Y149547D01*
X90679Y149662D01*
X88420Y152823D02*
X88131Y152960D01*
X87839Y153090D01*
X87543Y153213D01*
X87245Y153328D01*
X86944Y153437D01*
X86641Y153538D01*
X86335Y153632D01*
X86028Y153719D01*
X85718Y153798D01*
X85406Y153870D01*
X85093Y153934D01*
X84778Y153991D01*
X84462Y154041D01*
X84145Y154083D01*
X83827Y154117D01*
X83509Y154144D01*
X83189Y154163D01*
X82870Y154174D01*
X82550Y154178D01*
X88420Y152823D02*
X88528Y152784D01*
X88635Y152741D01*
X88740Y152695D01*
X88844Y152644D01*
X88946Y152591D01*
X89046Y152534D01*
X89144Y152473D01*
X89239Y152409D01*
X89333Y152342D01*
X89424Y152271D01*
X89513Y152198D01*
X89599Y152121D01*
X89682Y152042D01*
X89763Y151960D01*
X89841Y151875D01*
X89915Y151787D01*
X89987Y151697D01*
X90056Y151604D01*
X90121Y151510D01*
X90183Y151413D01*
X90241Y151313D01*
X90297Y151212D01*
X90348Y151109D01*
X90396Y151005D01*
X90441Y150899D01*
X90482Y150791D01*
X90519Y150682D01*
X90552Y150572D01*
X90581Y150460D01*
X90607Y150348D01*
X90629Y150235D01*
X90646Y150121D01*
X90660Y150007D01*
X90670Y149892D01*
X90676Y149777D01*
X90678Y149662D01*
X87066Y146050D02*
X78034Y153275D01*
X-11430Y155300D02*
X-11430Y55480D01*
X78490Y55480D02*
X80520Y55480D01*
X80520Y155300D01*
X12450Y155300D02*
X-11430Y155300D01*
X12450Y155300D02*
X12450Y139300D01*
X12450Y121520D02*
X12450Y89260D01*
X12450Y71480D02*
X12450Y55480D01*
X12450Y155300D02*
X78490Y155300D01*
X12450Y55480D02*
X-11430Y55480D01*
X78490Y55480D02*
X78490Y155300D01*
X80520Y155300D01*
X78490Y55480D02*
X12450Y55480D01*
X60198Y130410D02*
X60200Y130552D01*
X60206Y130695D01*
X60216Y130837D01*
X60230Y130979D01*
X60248Y131120D01*
X60270Y131261D01*
X60296Y131401D01*
X60325Y131540D01*
X60359Y131679D01*
X60397Y131816D01*
X60438Y131953D01*
X60483Y132088D01*
X60532Y132222D01*
X60585Y132354D01*
X60641Y132485D01*
X60701Y132614D01*
X60765Y132742D01*
X60832Y132867D01*
X60903Y132991D01*
X60977Y133113D01*
X61054Y133232D01*
X61135Y133350D01*
X61219Y133465D01*
X61306Y133577D01*
X61397Y133687D01*
X61490Y133795D01*
X61587Y133900D01*
X61686Y134002D01*
X61788Y134101D01*
X61893Y134198D01*
X62001Y134291D01*
X62111Y134382D01*
X62223Y134469D01*
X62338Y134553D01*
X62456Y134634D01*
X62575Y134711D01*
X62697Y134785D01*
X62821Y134856D01*
X62946Y134923D01*
X63074Y134987D01*
X63203Y135047D01*
X63334Y135103D01*
X63466Y135156D01*
X63600Y135205D01*
X63735Y135250D01*
X63872Y135291D01*
X64009Y135329D01*
X64148Y135363D01*
X64287Y135392D01*
X64427Y135418D01*
X64568Y135440D01*
X64709Y135458D01*
X64851Y135472D01*
X64993Y135482D01*
X65136Y135488D01*
X65278Y135490D01*
X65420Y135488D01*
X65563Y135482D01*
X65705Y135472D01*
X65847Y135458D01*
X65988Y135440D01*
X66129Y135418D01*
X66269Y135392D01*
X66408Y135363D01*
X66547Y135329D01*
X66684Y135291D01*
X66821Y135250D01*
X66956Y135205D01*
X67090Y135156D01*
X67222Y135103D01*
X67353Y135047D01*
X67482Y134987D01*
X67610Y134923D01*
X67735Y134856D01*
X67859Y134785D01*
X67981Y134711D01*
X68100Y134634D01*
X68218Y134553D01*
X68333Y134469D01*
X68445Y134382D01*
X68555Y134291D01*
X68663Y134198D01*
X68768Y134101D01*
X68870Y134002D01*
X68969Y133900D01*
X69066Y133795D01*
X69159Y133687D01*
X69250Y133577D01*
X69337Y133465D01*
X69421Y133350D01*
X69502Y133232D01*
X69579Y133113D01*
X69653Y132991D01*
X69724Y132867D01*
X69791Y132742D01*
X69855Y132614D01*
X69915Y132485D01*
X69971Y132354D01*
X70024Y132222D01*
X70073Y132088D01*
X70118Y131953D01*
X70159Y131816D01*
X70197Y131679D01*
X70231Y131540D01*
X70260Y131401D01*
X70286Y131261D01*
X70308Y131120D01*
X70326Y130979D01*
X70340Y130837D01*
X70350Y130695D01*
X70356Y130552D01*
X70358Y130410D01*
X70356Y130268D01*
X70350Y130125D01*
X70340Y129983D01*
X70326Y129841D01*
X70308Y129700D01*
X70286Y129559D01*
X70260Y129419D01*
X70231Y129280D01*
X70197Y129141D01*
X70159Y129004D01*
X70118Y128867D01*
X70073Y128732D01*
X70024Y128598D01*
X69971Y128466D01*
X69915Y128335D01*
X69855Y128206D01*
X69791Y128078D01*
X69724Y127953D01*
X69653Y127829D01*
X69579Y127707D01*
X69502Y127588D01*
X69421Y127470D01*
X69337Y127355D01*
X69250Y127243D01*
X69159Y127133D01*
X69066Y127025D01*
X68969Y126920D01*
X68870Y126818D01*
X68768Y126719D01*
X68663Y126622D01*
X68555Y126529D01*
X68445Y126438D01*
X68333Y126351D01*
X68218Y126267D01*
X68100Y126186D01*
X67981Y126109D01*
X67859Y126035D01*
X67735Y125964D01*
X67610Y125897D01*
X67482Y125833D01*
X67353Y125773D01*
X67222Y125717D01*
X67090Y125664D01*
X66956Y125615D01*
X66821Y125570D01*
X66684Y125529D01*
X66547Y125491D01*
X66408Y125457D01*
X66269Y125428D01*
X66129Y125402D01*
X65988Y125380D01*
X65847Y125362D01*
X65705Y125348D01*
X65563Y125338D01*
X65420Y125332D01*
X65278Y125330D01*
X65136Y125332D01*
X64993Y125338D01*
X64851Y125348D01*
X64709Y125362D01*
X64568Y125380D01*
X64427Y125402D01*
X64287Y125428D01*
X64148Y125457D01*
X64009Y125491D01*
X63872Y125529D01*
X63735Y125570D01*
X63600Y125615D01*
X63466Y125664D01*
X63334Y125717D01*
X63203Y125773D01*
X63074Y125833D01*
X62946Y125897D01*
X62821Y125964D01*
X62697Y126035D01*
X62575Y126109D01*
X62456Y126186D01*
X62338Y126267D01*
X62223Y126351D01*
X62111Y126438D01*
X62001Y126529D01*
X61893Y126622D01*
X61788Y126719D01*
X61686Y126818D01*
X61587Y126920D01*
X61490Y127025D01*
X61397Y127133D01*
X61306Y127243D01*
X61219Y127355D01*
X61135Y127470D01*
X61054Y127588D01*
X60977Y127707D01*
X60903Y127829D01*
X60832Y127953D01*
X60765Y128078D01*
X60701Y128206D01*
X60641Y128335D01*
X60585Y128466D01*
X60532Y128598D01*
X60483Y128732D01*
X60438Y128867D01*
X60397Y129004D01*
X60359Y129141D01*
X60325Y129280D01*
X60296Y129419D01*
X60270Y129559D01*
X60248Y129700D01*
X60230Y129841D01*
X60216Y129983D01*
X60206Y130125D01*
X60200Y130268D01*
X60198Y130410D01*
X60198Y80372D02*
X60200Y80514D01*
X60206Y80657D01*
X60216Y80799D01*
X60230Y80941D01*
X60248Y81082D01*
X60270Y81223D01*
X60296Y81363D01*
X60325Y81502D01*
X60359Y81641D01*
X60397Y81778D01*
X60438Y81915D01*
X60483Y82050D01*
X60532Y82184D01*
X60585Y82316D01*
X60641Y82447D01*
X60701Y82576D01*
X60765Y82704D01*
X60832Y82829D01*
X60903Y82953D01*
X60977Y83075D01*
X61054Y83194D01*
X61135Y83312D01*
X61219Y83427D01*
X61306Y83539D01*
X61397Y83649D01*
X61490Y83757D01*
X61587Y83862D01*
X61686Y83964D01*
X61788Y84063D01*
X61893Y84160D01*
X62001Y84253D01*
X62111Y84344D01*
X62223Y84431D01*
X62338Y84515D01*
X62456Y84596D01*
X62575Y84673D01*
X62697Y84747D01*
X62821Y84818D01*
X62946Y84885D01*
X63074Y84949D01*
X63203Y85009D01*
X63334Y85065D01*
X63466Y85118D01*
X63600Y85167D01*
X63735Y85212D01*
X63872Y85253D01*
X64009Y85291D01*
X64148Y85325D01*
X64287Y85354D01*
X64427Y85380D01*
X64568Y85402D01*
X64709Y85420D01*
X64851Y85434D01*
X64993Y85444D01*
X65136Y85450D01*
X65278Y85452D01*
X65420Y85450D01*
X65563Y85444D01*
X65705Y85434D01*
X65847Y85420D01*
X65988Y85402D01*
X66129Y85380D01*
X66269Y85354D01*
X66408Y85325D01*
X66547Y85291D01*
X66684Y85253D01*
X66821Y85212D01*
X66956Y85167D01*
X67090Y85118D01*
X67222Y85065D01*
X67353Y85009D01*
X67482Y84949D01*
X67610Y84885D01*
X67735Y84818D01*
X67859Y84747D01*
X67981Y84673D01*
X68100Y84596D01*
X68218Y84515D01*
X68333Y84431D01*
X68445Y84344D01*
X68555Y84253D01*
X68663Y84160D01*
X68768Y84063D01*
X68870Y83964D01*
X68969Y83862D01*
X69066Y83757D01*
X69159Y83649D01*
X69250Y83539D01*
X69337Y83427D01*
X69421Y83312D01*
X69502Y83194D01*
X69579Y83075D01*
X69653Y82953D01*
X69724Y82829D01*
X69791Y82704D01*
X69855Y82576D01*
X69915Y82447D01*
X69971Y82316D01*
X70024Y82184D01*
X70073Y82050D01*
X70118Y81915D01*
X70159Y81778D01*
X70197Y81641D01*
X70231Y81502D01*
X70260Y81363D01*
X70286Y81223D01*
X70308Y81082D01*
X70326Y80941D01*
X70340Y80799D01*
X70350Y80657D01*
X70356Y80514D01*
X70358Y80372D01*
X70356Y80230D01*
X70350Y80087D01*
X70340Y79945D01*
X70326Y79803D01*
X70308Y79662D01*
X70286Y79521D01*
X70260Y79381D01*
X70231Y79242D01*
X70197Y79103D01*
X70159Y78966D01*
X70118Y78829D01*
X70073Y78694D01*
X70024Y78560D01*
X69971Y78428D01*
X69915Y78297D01*
X69855Y78168D01*
X69791Y78040D01*
X69724Y77915D01*
X69653Y77791D01*
X69579Y77669D01*
X69502Y77550D01*
X69421Y77432D01*
X69337Y77317D01*
X69250Y77205D01*
X69159Y77095D01*
X69066Y76987D01*
X68969Y76882D01*
X68870Y76780D01*
X68768Y76681D01*
X68663Y76584D01*
X68555Y76491D01*
X68445Y76400D01*
X68333Y76313D01*
X68218Y76229D01*
X68100Y76148D01*
X67981Y76071D01*
X67859Y75997D01*
X67735Y75926D01*
X67610Y75859D01*
X67482Y75795D01*
X67353Y75735D01*
X67222Y75679D01*
X67090Y75626D01*
X66956Y75577D01*
X66821Y75532D01*
X66684Y75491D01*
X66547Y75453D01*
X66408Y75419D01*
X66269Y75390D01*
X66129Y75364D01*
X65988Y75342D01*
X65847Y75324D01*
X65705Y75310D01*
X65563Y75300D01*
X65420Y75294D01*
X65278Y75292D01*
X65136Y75294D01*
X64993Y75300D01*
X64851Y75310D01*
X64709Y75324D01*
X64568Y75342D01*
X64427Y75364D01*
X64287Y75390D01*
X64148Y75419D01*
X64009Y75453D01*
X63872Y75491D01*
X63735Y75532D01*
X63600Y75577D01*
X63466Y75626D01*
X63334Y75679D01*
X63203Y75735D01*
X63074Y75795D01*
X62946Y75859D01*
X62821Y75926D01*
X62697Y75997D01*
X62575Y76071D01*
X62456Y76148D01*
X62338Y76229D01*
X62223Y76313D01*
X62111Y76400D01*
X62001Y76491D01*
X61893Y76584D01*
X61788Y76681D01*
X61686Y76780D01*
X61587Y76882D01*
X61490Y76987D01*
X61397Y77095D01*
X61306Y77205D01*
X61219Y77317D01*
X61135Y77432D01*
X61054Y77550D01*
X60977Y77669D01*
X60903Y77791D01*
X60832Y77915D01*
X60765Y78040D01*
X60701Y78168D01*
X60641Y78297D01*
X60585Y78428D01*
X60532Y78560D01*
X60483Y78694D01*
X60438Y78829D01*
X60397Y78966D01*
X60359Y79103D01*
X60325Y79242D01*
X60296Y79381D01*
X60270Y79521D01*
X60248Y79662D01*
X60230Y79803D01*
X60216Y79945D01*
X60206Y80087D01*
X60200Y80230D01*
X60198Y80372D01*
D11*
X52705Y143745D02*
X50165Y146920D01*
X61595Y146920D01*
X61595Y143745D02*
X61595Y150095D01*
X53023Y100566D02*
X52919Y100564D01*
X52814Y100558D01*
X52710Y100549D01*
X52607Y100536D01*
X52504Y100518D01*
X52402Y100498D01*
X52300Y100473D01*
X52200Y100445D01*
X52100Y100413D01*
X52002Y100377D01*
X51905Y100338D01*
X51810Y100296D01*
X51716Y100250D01*
X51624Y100200D01*
X51534Y100148D01*
X51446Y100092D01*
X51360Y100032D01*
X51276Y99970D01*
X51195Y99905D01*
X51116Y99837D01*
X51039Y99765D01*
X50966Y99692D01*
X50894Y99615D01*
X50826Y99536D01*
X50761Y99455D01*
X50699Y99371D01*
X50639Y99285D01*
X50583Y99197D01*
X50531Y99107D01*
X50481Y99015D01*
X50435Y98921D01*
X50393Y98826D01*
X50354Y98729D01*
X50318Y98631D01*
X50286Y98531D01*
X50258Y98431D01*
X50233Y98329D01*
X50213Y98227D01*
X50195Y98124D01*
X50182Y98021D01*
X50173Y97917D01*
X50167Y97812D01*
X50165Y97708D01*
X50167Y97590D01*
X50173Y97471D01*
X50182Y97353D01*
X50195Y97236D01*
X50213Y97119D01*
X50233Y97002D01*
X50258Y96886D01*
X50286Y96771D01*
X50319Y96658D01*
X50354Y96545D01*
X50394Y96433D01*
X50436Y96323D01*
X50483Y96214D01*
X50533Y96106D01*
X50586Y96001D01*
X50643Y95897D01*
X50703Y95795D01*
X50766Y95695D01*
X50833Y95597D01*
X50902Y95501D01*
X50975Y95408D01*
X51051Y95317D01*
X51129Y95228D01*
X51211Y95142D01*
X51295Y95059D01*
X51381Y94978D01*
X51471Y94901D01*
X51562Y94826D01*
X51656Y94754D01*
X51753Y94685D01*
X51851Y94620D01*
X51952Y94557D01*
X52055Y94498D01*
X52159Y94442D01*
X52265Y94390D01*
X52373Y94341D01*
X52482Y94296D01*
X52593Y94254D01*
X52705Y94216D01*
X55245Y99613D02*
X55170Y99689D01*
X55091Y99764D01*
X55010Y99835D01*
X54926Y99904D01*
X54840Y99969D01*
X54752Y100031D01*
X54662Y100091D01*
X54570Y100147D01*
X54475Y100200D01*
X54379Y100249D01*
X54281Y100295D01*
X54182Y100338D01*
X54081Y100377D01*
X53979Y100412D01*
X53876Y100444D01*
X53772Y100472D01*
X53667Y100497D01*
X53560Y100518D01*
X53454Y100535D01*
X53347Y100548D01*
X53239Y100557D01*
X53131Y100563D01*
X53023Y100565D01*
X55245Y99613D02*
X61595Y94215D01*
X61595Y100565D01*
X5207Y124822D02*
X-6223Y132442D01*
X-6223Y124822D02*
X5207Y132442D01*
X-3683Y136887D02*
X-6223Y140062D01*
X5207Y140062D01*
X5207Y136887D02*
X5207Y143237D01*
M02*
