M48
; DRILL file {KiCad (6.0.6)} date Wed Mar 29 11:00:15 2023
; FORMAT={-:-/ absolute / metric / decimal}
; #@! TF.CreationDate,2023-03-29T11:00:15+02:00
; #@! TF.GenerationSoftware,Kicad,Pcbnew,(6.0.6)
; #@! TF.FileFunction,Plated,1,2,PTH
FMAT,2
METRIC
; #@! TA.AperFunction,Plated,PTH,ComponentDrill
T1C0.900
; #@! TA.AperFunction,Plated,PTH,ComponentDrill
T2C1.000
%
G90
G05
T1
X121.679Y-80.64
X121.679Y-83.18
X121.679Y-87.447
X121.679Y-89.987
X159.922Y-108.725
X162.462Y-108.725
X165.002Y-108.725
X166.272Y-80.125
X167.542Y-108.725
X168.812Y-80.125
X170.082Y-108.725
X172.622Y-108.725
X175.162Y-108.725
T2
X119.38Y-67.31
X119.38Y-100.76
X121.92Y-67.31
X121.92Y-100.76
X124.46Y-67.31
X124.46Y-100.76
X130.81Y-68.58
X130.81Y-71.12
X130.81Y-73.66
X130.81Y-76.2
X130.81Y-78.74
X130.81Y-81.28
X130.81Y-83.82
X130.81Y-86.36
X130.81Y-88.9
X130.81Y-91.44
X130.81Y-93.98
X130.81Y-96.52
X130.81Y-99.06
X130.81Y-101.6
X130.81Y-104.14
X146.05Y-68.58
X146.05Y-71.12
X146.05Y-73.66
X146.05Y-76.2
X146.05Y-78.74
X146.05Y-81.28
X146.05Y-83.82
X146.05Y-86.36
X146.05Y-88.9
X146.05Y-91.44
X146.05Y-93.98
X146.05Y-96.52
X146.05Y-99.06
X146.05Y-101.6
X146.05Y-104.14
X150.638Y-80.202
X150.638Y-82.742
X150.638Y-85.282
X150.638Y-87.822
X150.638Y-90.362
X150.638Y-92.902
X150.638Y-95.442
X150.638Y-97.982
X150.753Y-62.53
X150.753Y-66.991
X153.293Y-62.53
X153.293Y-66.991
X155.833Y-62.53
X155.833Y-66.991
X158.373Y-62.53
X158.373Y-66.991
X160.913Y-62.53
X160.913Y-66.991
X166.65Y-62.08
X166.65Y-66.85
X169.19Y-62.08
X169.19Y-66.85
T0
M30
